Coordinates
version=1
nRows=27
nColumns=12
inDegrees=yes

Units are S.I. units (second, meters, Newtons, ...)
Angles are in degrees

endheader
time	SC_y	SC_z	SC_x	AC_y	AC_z	AC_x	GH_y	GH_z	GH_yy	EL_x	PS_y
       0.0              -19.94          23.11          38.71          64.93          4.221         -6.147         -127.0          72.43          12.68          32.75          68.16
   0.02828              -19.94          23.11          38.71          64.93           4.22         -6.149         -127.0          72.43           12.7          32.76          68.15
   0.05657              -19.94          23.11          38.71          64.93          4.218          -6.15         -127.0          72.42          12.71          32.77          68.14
   0.08485              -19.94          23.11          38.71          64.93          4.216         -6.152         -127.1          72.42          12.73          32.79          68.13
    0.1131              -19.94          23.11          38.71          64.93          4.214         -6.154         -127.1          72.42          12.75           32.8          68.13
    0.1414              -19.94          23.11          38.71          64.93          4.212         -6.156         -127.1          72.42          12.77          32.82          68.12
    0.1697              -19.94          23.11           38.7          64.92           4.21         -6.158         -127.1          72.41          12.79          32.83          68.11
     0.198              -19.94          23.11           38.7          64.92          4.207          -6.16         -127.1          72.41          12.82          32.85           68.1
    0.2263              -19.94          23.11           38.7          64.92          4.205         -6.162         -127.1          72.41          12.84          32.87          68.09
    0.2545              -19.94          23.11           38.7          64.92          4.202         -6.165         -127.1           72.4          12.87          32.89          68.08
    0.2828              -19.94          23.11          38.69          64.92          4.199         -6.168         -127.1           72.4           12.9          32.91          68.07
    0.3111              -19.95          23.11          38.69          64.91          4.196          -6.17         -127.1          72.39          12.93          32.94          68.05
    0.3394              -19.95          23.11          38.69          64.91          4.192         -6.174         -127.1          72.39          12.96          32.96          68.04
    0.3677              -19.95          23.11          38.68          64.91          4.189         -6.177         -127.2          72.38           13.0          32.99          68.02
     0.396              -19.95          23.11          38.68          64.91          4.185         -6.181         -127.2          72.38          13.04          33.02          68.01
    0.4242              -19.95          23.11          38.68           64.9           4.18         -6.185         -127.2          72.37          13.08          33.05          67.99
    0.4525              -19.95          23.12          38.67           64.9          4.176         -6.189         -127.2          72.37          13.12          33.09          67.97
    0.4808              -19.95          23.12          38.67           64.9           4.17         -6.194         -127.2          72.36          13.18          33.13          67.95
    0.5091              -19.96          23.12          38.66          64.89          4.165         -6.199         -127.2          72.35          13.23          33.17          67.93
    0.5374              -19.96          23.12          38.66          64.89          4.158         -6.204         -127.3          72.34          13.29          33.22           67.9
    0.5657              -19.96          23.12          38.65          64.88          4.152         -6.211         -127.3          72.34          13.36          33.27          67.87
    0.5939              -19.96          23.12          38.64          64.88          4.144         -6.217         -127.3          72.33          13.43          33.32          67.84
    0.6222              -19.97          23.12          38.64          64.87          4.136         -6.225         -127.4          72.31          13.51          33.38          67.81
    0.6505              -19.97          23.13          38.63          64.87          4.127         -6.233         -127.4           72.3           13.6          33.45          67.77
    0.6788              -19.97          23.13          38.62          64.86          4.117         -6.243         -127.4          72.29           13.7          33.53          67.73
    0.7071              -19.98          23.13          38.61          64.85          4.105         -6.253         -127.5          72.27          13.81          33.61          67.69
    0.7354              -19.98          23.13           38.6          64.84          4.092         -6.264         -127.5          72.26          13.93          33.71          67.64
